<svg xmlns="http://www.w3.org/2000/svg" version="1.1" xmlns:xlink="http://www.w3.org/1999/xlink" xmlns:svgjs="http://svgjs.dev/svgjs" width="2000" height="1500" viewBox="0 0 2000 1500"><rect width="2000" height="1500" fill="#ffffff"></rect><g transform="matrix(0.75,0,0,0.75,249.78667664670684,-0.21332335329350371)"><svg viewBox="0 0 334 334" data-background-color="#ffffff" preserveAspectRatio="xMidYMid meet" height="2000" width="2000" xmlns="http://www.w3.org/2000/svg" xmlns:xlink="http://www.w3.org/1999/xlink"><g id="tight-bounds" transform="matrix(1,0,0,1,0.04749999999998522,0.04750000000001364)"><svg viewBox="0 0 333.90454557049503 333.90454557049503" height="333.90454557049503" width="333.90454557049503"><g><svg></svg></g><g><svg viewBox="0 0 333.90454557049503 333.90454557049503" height="333.90454557049503" width="333.90454557049503"><g><path d="M0 166.952c0-92.205 74.747-166.952 166.952-166.952 92.205 0 166.952 74.747 166.953 166.952 0 92.205-74.747 166.952-166.953 166.953-92.205 0-166.952-74.747-166.952-166.953zM166.952 323.841c86.647 0 156.889-70.242 156.889-156.889 0-86.647-70.242-156.889-156.889-156.889-86.647 0-156.889 70.242-156.889 156.889 0 86.647 70.242 156.889 156.889 156.889z" data-fill-palette-color="tertiary" fill="#35185a" stroke="transparent"></path><ellipse rx="160.27418187383762" ry="160.27418187383762" cx="166.95227278524752" cy="166.95227278524752" fill="#35185a" stroke="transparent" stroke-width="0" fill-opacity="1" data-fill-palette-color="tertiary"></ellipse></g><g transform="matrix(1,0,0,1,123.26682122569812,71.17305217166896)"><svg viewBox="0 0 87.37090311909877 191.55844122715712" height="191.55844122715712" width="87.37090311909877"><g><svg viewBox="0 0 87.37090311909877 191.55844122715712" height="191.55844122715712" width="87.37090311909877"><g><svg viewBox="0 0 149.98504609690877 328.83832731524944" height="191.55844122715712" width="87.37090311909877"><g transform="matrix(1,0,0,1,0,137.2798860880923)"><svg viewBox="0 0 149.98504609690877 191.55844122715712" height="191.55844122715712" width="149.98504609690877"><g id="textblocktransform"><svg viewBox="0 0 149.98504609690877 191.55844122715712" height="191.55844122715712" width="149.98504609690877" id="textblock"><g><svg viewBox="0 0 149.98504609690877 191.55844122715712" height="191.55844122715712" width="149.98504609690877"><g transform="matrix(1,0,0,1,0,0)"><svg width="149.98504609690877" viewBox="0.7 -35.83 28.05 35.83" height="191.55844122715712" data-palette-color="#ffffff"><path d="M0.7-35.83L28.75-35.83 28.75-31.75 17.18-31.75 17.18 0 12.33 0 12.33-31.75 0.7-31.75 0.7-35.83Z" opacity="1" transform="matrix(1,0,0,1,0,0)" fill="#ffffff" class="wordmark-text-0" data-fill-palette-color="quaternary" id="text-0"></path></svg></g></svg></g></svg></g></svg></g><g transform="matrix(1,0,0,1,28.647143804509575,0)"><svg viewBox="0 0 92.69075848788962 92.05753551694995" height="92.05753551694995" width="92.69075848788962"><g><svg xmlns="http://www.w3.org/2000/svg" viewBox="2 2.4098939190506683 60 59.59010608094933" x="0" y="0" height="92.05753551694995" width="92.69075848788962" class="icon-icon-0" data-fill-palette-color="quaternary" id="icon-0"><g data-name="Layer 4" fill="#ffffff" data-fill-palette-color="quaternary"><path d="M50.79 40.58C51.84 29.18 52.91 17.92 54 7.1a1 1 0 0 0-0.66-1 63.55 63.55 0 0 0-42.68 0 1 1 0 0 0-0.66 1C11.09 18 12.17 29.24 13.21 40.58 6.08 42.82 2 46.23 2 50c0 6.73 13.18 12 30 12s30-5.27 30-12C62 46.23 57.92 42.82 50.79 40.58Zm-35.3 3A66 66 0 0 0 32 45.67a66 66 0 0 0 16.51-2.11c-0.12 1.3-0.24 2.61-0.35 3.92a60.72 60.72 0 0 1-32.32 0C15.73 46.17 15.61 44.86 15.49 43.56ZM51.93 7.68C50.85 18.53 49.77 29.8 48.72 41.2a1.94 1.94 0 0 1 0 0.24 63.92 63.92 0 0 1-33.4 0l0-0.24h0c-1-11.35-2.12-22.62-3.21-33.52A61.57 61.57 0 0 1 51.93 7.68ZM32 60C15.25 60 4 54.83 4 50c0-2.74 3.49-5.46 9.4-7.39q0.26 2.85 0.51 5.74a1 1 0 0 0 0.72 0.87A63 63 0 0 0 32 51.67a63 63 0 0 0 17.37-2.45 1 1 0 0 0 0.72-0.87q0.25-2.9 0.51-5.74C56.51 44.54 60 47.26 60 50 60 54.83 48.75 60 32 60Z" fill="#ffffff" data-fill-palette-color="quaternary"></path></g></svg></g></svg></g><g></g></svg></g></svg></g></svg></g></svg></g><defs></defs></svg><rect width="333.90454557049503" height="333.90454557049503" fill="none" stroke="none" visibility="hidden"></rect></g></svg></g></svg>